<svg width="167" height="167" viewBox="0 0 167 167" fill="none" xmlns="http://www.w3.org/2000/svg">
<g clip-path="url(#clip0_403_508)">
<g opacity="0.3">
<path d="M83.5 167C37.4561 167 0 129.544 0 83.5C0 37.4561 37.4561 0 83.5 0C129.544 0 167 37.4561 167 83.5C167 129.544 129.544 167 83.5 167ZM83.5 9.8007C42.8902 9.8007 9.8007 42.8417 9.8007 83.5C9.8007 124.11 42.8417 157.199 83.5 157.199C124.158 157.199 157.199 124.158 157.199 83.5C157.199 42.8902 124.11 9.8007 83.5 9.8007Z" fill="#C4C4C4"/>
</g>
<path d="M83.5 167C37.4561 167 0 129.544 0 83.5C0 37.4561 37.4561 0 83.5 0C86.217 0 88.4004 2.18332 88.4004 4.90035C88.4004 7.61737 86.217 9.8007 83.5 9.8007C42.8902 9.8007 9.8007 42.8417 9.8007 83.5C9.8007 124.11 42.8417 157.199 83.5 157.199C104.46 157.199 124.498 148.223 138.471 132.601C140.266 130.563 143.372 130.417 145.409 132.212C147.447 134.008 147.593 137.113 145.798 139.15C129.981 156.811 107.274 167 83.5 167Z" fill="#E5745D"/>
</g>
<path d="M63.382 70.308C63.518 70.4667 63.62 70.6707 63.688 70.92C63.756 71.1693 63.7787 71.4753 63.756 71.838C61.6253 72.2687 59.8687 72.9487 58.486 73.878C57.126 74.8073 56.1173 76.0767 55.46 77.686C54.8027 79.2727 54.474 81.29 54.474 83.738C54.474 84.962 54.5987 85.9933 54.848 86.832C55.12 87.6707 55.4487 88.3507 55.834 88.872C56.242 89.3707 56.6727 89.7333 57.126 89.96C57.5793 90.164 57.9987 90.266 58.384 90.266C59.1773 90.266 59.812 90.062 60.288 89.654C60.764 89.246 61.1153 88.7133 61.342 88.056C61.5913 87.376 61.716 86.6733 61.716 85.948C61.716 84.6787 61.4893 83.67 61.036 82.922C60.5827 82.174 60.0273 81.6413 59.37 81.324C58.7127 80.984 58.0667 80.814 57.432 80.814C56.888 80.814 56.31 80.916 55.698 81.12C55.086 81.3013 54.4513 81.63 53.794 82.106L53.692 80.644C54.7573 79.9187 55.7207 79.3973 56.582 79.08C57.466 78.74 58.3727 78.57 59.302 78.57C61.3193 78.57 62.9173 79.114 64.096 80.202C65.2747 81.29 65.864 82.82 65.864 84.792C65.864 86.0387 65.6373 87.1267 65.184 88.056C64.7533 88.9853 64.164 89.7673 63.416 90.402C62.6907 91.0367 61.8747 91.5127 60.968 91.83C60.0613 92.1473 59.1207 92.306 58.146 92.306C56.4687 92.306 55.0293 92 53.828 91.388C52.6493 90.776 51.7427 89.8467 51.108 88.6C50.496 87.3533 50.19 85.7667 50.19 83.84C50.19 81.8227 50.4733 80.066 51.04 78.57C51.6067 77.074 52.3547 75.816 53.284 74.796C54.236 73.7533 55.29 72.9147 56.446 72.28C57.602 71.6227 58.7807 71.1467 59.982 70.852C61.1833 70.5347 62.3167 70.3533 63.382 70.308ZM76.7177 76.802C75.811 76.802 75.0404 77.074 74.4057 77.618C73.7937 78.1393 73.3177 78.842 72.9777 79.726C72.6604 80.61 72.5017 81.596 72.5017 82.684C72.5017 83.5 72.6264 84.35 72.8757 85.234C73.1477 86.0953 73.533 86.9 74.0317 87.648C74.553 88.3733 75.165 88.9627 75.8677 89.416C76.593 89.8693 77.409 90.096 78.3157 90.096C79.2677 90.096 80.0384 89.824 80.6277 89.28C81.217 88.736 81.6477 88.0107 81.9197 87.104C82.1917 86.1973 82.3277 85.2227 82.3277 84.18C82.3277 83.4093 82.203 82.6047 81.9537 81.766C81.727 80.9047 81.3644 80.1 80.8657 79.352C80.3897 78.5813 79.8004 77.9693 79.0977 77.516C78.4177 77.04 77.6244 76.802 76.7177 76.802ZM77.6017 74.796C79.211 74.796 80.6957 75.1247 82.0557 75.782C83.4384 76.4393 84.5377 77.4027 85.3537 78.672C86.1697 79.9413 86.5777 81.494 86.5777 83.33C86.5777 85.166 86.1697 86.764 85.3537 88.124C84.5377 89.4613 83.4497 90.4927 82.0897 91.218C80.7297 91.9433 79.2337 92.306 77.6017 92.306C75.9244 92.306 74.383 91.9433 72.9777 91.218C71.5724 90.4927 70.4504 89.4613 69.6117 88.124C68.773 86.764 68.3537 85.166 68.3537 83.33C68.3537 81.9473 68.603 80.7233 69.1017 79.658C69.623 78.5927 70.3257 77.6973 71.2097 76.972C72.0937 76.2467 73.0797 75.7027 74.1677 75.34C75.2784 74.9773 76.423 74.796 77.6017 74.796ZM94.0697 92.238C93.6617 92.1247 93.3103 91.9547 93.0157 91.728C92.721 91.4787 92.517 91.2293 92.4037 90.98L111.104 68.676C111.466 68.7213 111.806 68.8347 112.124 69.016C112.441 69.1747 112.713 69.39 112.94 69.662L94.0697 92.238ZM96.2117 79.794C95.0103 79.794 94.013 79.5447 93.2197 79.046C92.449 78.5247 91.8597 77.8673 91.4517 77.074C91.0437 76.2807 90.8397 75.4533 90.8397 74.592C90.8397 73.6173 91.055 72.7107 91.4857 71.872C91.9163 71.0107 92.551 70.3193 93.3897 69.798C94.2283 69.254 95.2823 68.982 96.5517 68.982C97.685 68.982 98.6257 69.2427 99.3737 69.764C100.122 70.2627 100.677 70.9087 101.04 71.702C101.425 72.4953 101.618 73.3 101.618 74.116C101.618 75.136 101.402 76.0767 100.972 76.938C100.564 77.7993 99.963 78.4907 99.1697 79.012C98.3763 79.5333 97.3903 79.794 96.2117 79.794ZM96.4497 77.992C96.9483 77.992 97.4243 77.7087 97.8777 77.142C98.3537 76.5527 98.5917 75.6913 98.5917 74.558C98.5917 73.4473 98.3537 72.5407 97.8777 71.838C97.4243 71.1127 96.835 70.75 96.1097 70.75C95.5203 70.75 94.999 71.0787 94.5457 71.736C94.115 72.3707 93.8997 73.1753 93.8997 74.15C93.8997 75.2833 94.1263 76.2127 94.5797 76.938C95.0557 77.6407 95.679 77.992 96.4497 77.992ZM108.792 92.272C107.59 92.272 106.593 92.0227 105.8 91.524C105.029 91.0027 104.44 90.3453 104.032 89.552C103.624 88.7587 103.42 87.9313 103.42 87.07C103.42 86.0953 103.635 85.1887 104.066 84.35C104.496 83.4887 105.131 82.7973 105.97 82.276C106.831 81.732 107.885 81.46 109.132 81.46C110.265 81.46 111.194 81.7207 111.92 82.242C112.668 82.7407 113.234 83.3867 113.62 84.18C114.005 84.9733 114.198 85.778 114.198 86.594C114.198 87.614 113.982 88.5547 113.552 89.416C113.144 90.2773 112.543 90.9687 111.75 91.49C110.956 92.0113 109.97 92.272 108.792 92.272ZM109.03 90.47C109.528 90.47 110.004 90.1867 110.458 89.62C110.934 89.0307 111.172 88.1693 111.172 87.036C111.172 85.9253 110.934 85.0187 110.458 84.316C110.004 83.5907 109.415 83.228 108.69 83.228C108.1 83.228 107.579 83.5567 107.126 84.214C106.695 84.8487 106.48 85.6533 106.48 86.628C106.48 87.7613 106.706 88.6907 107.16 89.416C107.636 90.1187 108.259 90.47 109.03 90.47Z" fill="#E5745D"/>
<defs>
<clipPath id="clip0_403_508">
<rect width="167" height="167" fill="white"/>
</clipPath>
</defs>
</svg>
