<svg width="64" height="247" viewBox="0 0 64 247" fill="none" xmlns="http://www.w3.org/2000/svg">
<g opacity="0.1">
<path d="M58.0217 11.9645C54.7192 11.9645 52.0434 9.28686 52.0434 5.98223C52.0434 2.6776 54.7192 -4.05675e-07 58.0217 -2.6132e-07C61.3242 -1.16965e-07 64 2.6776 64 5.98223C64 9.28686 61.3242 11.9645 58.0217 11.9645Z" fill="#00413D"/>
<path d="M58.0217 35.4696C54.7192 35.4696 52.0434 32.792 52.0434 29.4874C52.0434 26.1827 54.7192 23.5051 58.0217 23.5051C61.3242 23.5051 64 26.1827 64 29.4874C64 32.792 61.3242 35.4696 58.0217 35.4696Z" fill="#00413D"/>
<path d="M58.0217 58.9752C54.7192 58.9752 52.0434 56.2976 52.0434 52.993C52.0434 49.6883 54.7192 47.0107 58.0217 47.0107C61.3242 47.0107 64 49.6883 64 52.993C64 56.2976 61.3242 58.9752 58.0217 58.9752Z" fill="#00413D"/>
<path d="M58.0217 82.4801C54.7192 82.4801 52.0434 79.8025 52.0434 76.4979C52.0434 73.1932 54.7192 70.5156 58.0217 70.5156C61.3242 70.5156 64 73.1932 64 76.4979C64 79.8025 61.3242 82.4801 58.0217 82.4801Z" fill="#00413D"/>
<path d="M58.0217 105.968C54.7192 105.968 52.0434 103.291 52.0434 99.9861C52.0434 96.6815 54.7192 94.0039 58.0217 94.0039C61.3242 94.0039 64 96.6815 64 99.9861C64 103.291 61.3242 105.968 58.0217 105.968Z" fill="#00413D"/>
<path d="M58.0217 129.474C54.7192 129.474 52.0434 126.796 52.0434 123.492C52.0434 120.187 54.7192 117.509 58.0217 117.509C61.3242 117.509 64 120.187 64 123.492C64 126.796 61.3242 129.474 58.0217 129.474Z" fill="#00413D"/>
<path d="M58.0217 152.979C54.7192 152.979 52.0434 150.302 52.0434 146.997C52.0434 143.692 54.7192 141.015 58.0217 141.015C61.3242 141.015 64 143.692 64 146.997C64 150.302 61.3242 152.979 58.0217 152.979Z" fill="#00413D"/>
<path d="M58.0217 176.484C54.7192 176.484 52.0434 173.806 52.0434 170.502C52.0434 167.197 54.7192 164.52 58.0217 164.52C61.3242 164.52 64 167.197 64 170.502C64 173.806 61.3242 176.484 58.0217 176.484Z" fill="#00413D"/>
<path d="M58.0217 199.989C54.7192 199.989 52.0434 197.312 52.0434 194.007C52.0434 190.703 54.7192 188.025 58.0217 188.025C61.3242 188.025 64 190.703 64 194.007C64 197.312 61.3242 199.989 58.0217 199.989Z" fill="#00413D"/>
<path d="M58.0217 223.495C54.7192 223.495 52.0434 220.817 52.0434 217.513C52.0434 214.208 54.7192 211.53 58.0217 211.53C61.3242 211.53 64 214.208 64 217.513C64 220.817 61.3242 223.495 58.0217 223.495Z" fill="#00413D"/>
<path d="M58.0217 247C54.7192 247 52.0434 244.323 52.0434 241.018C52.0434 237.713 54.7192 235.036 58.0217 235.036C61.3242 235.036 64 237.713 64 241.018C64 244.306 61.3242 247 58.0217 247Z" fill="#00413D"/>
<path d="M31.9914 11.9645C28.689 11.9645 26.0131 9.28686 26.0131 5.98223C26.0131 2.6776 28.7059 -4.04935e-07 31.9914 -2.6132e-07C35.2939 -1.16965e-07 37.9697 2.6776 37.9697 5.98223C37.9697 9.28686 35.2939 11.9645 31.9914 11.9645Z" fill="#00413D"/>
<path d="M31.9914 35.4696C28.689 35.4696 26.0131 32.792 26.0131 29.4874C26.0131 26.1827 28.689 23.5051 31.9914 23.5051C35.2939 23.5051 37.9697 26.1827 37.9697 29.4874C37.9697 32.792 35.2939 35.4696 31.9914 35.4696Z" fill="#00413D"/>
<path d="M31.9914 58.9747C28.689 58.9747 26.0131 56.2971 26.0131 52.9925C26.0131 49.6879 28.689 47.0103 31.9914 47.0103C35.2939 47.0103 37.9697 49.6879 37.9697 52.9925C37.9697 56.2971 35.2939 58.9747 31.9914 58.9747Z" fill="#00413D"/>
<path d="M31.9914 82.4801C28.689 82.4801 26.0131 79.8025 26.0131 76.4979C26.0131 73.1932 28.689 70.5156 31.9914 70.5156C35.2939 70.5156 37.9697 73.1932 37.9697 76.4979C37.9697 79.8025 35.2939 82.4801 31.9914 82.4801Z" fill="#00413D"/>
<path d="M31.9914 105.968C28.689 105.968 26.0131 103.291 26.0131 99.9861C26.0131 96.6815 28.689 94.0039 31.9914 94.0039C35.2939 94.0039 37.9697 96.6815 37.9697 99.9861C37.9697 103.291 35.2939 105.968 31.9914 105.968Z" fill="#00413D"/>
<path d="M31.9914 129.474C28.689 129.474 26.0131 126.796 26.0131 123.492C26.0131 120.187 28.689 117.509 31.9914 117.509C35.2939 117.509 37.9697 120.187 37.9697 123.492C37.9697 126.796 35.2939 129.474 31.9914 129.474Z" fill="#00413D"/>
<path d="M31.9914 152.979C28.689 152.979 26.0131 150.301 26.0131 146.997C26.0131 143.692 28.689 141.014 31.9914 141.014C35.2939 141.014 37.9697 143.692 37.9697 146.997C37.9697 150.301 35.2939 152.979 31.9914 152.979Z" fill="#00413D"/>
<path d="M31.9914 176.484C28.689 176.484 26.0131 173.806 26.0131 170.502C26.0131 167.197 28.689 164.52 31.9914 164.52C35.2939 164.52 37.9697 167.197 37.9697 170.502C37.9697 173.806 35.2939 176.484 31.9914 176.484Z" fill="#00413D"/>
<path d="M31.9914 199.989C28.689 199.989 26.0131 197.312 26.0131 194.007C26.0131 190.703 28.689 188.025 31.9914 188.025C35.2939 188.025 37.9697 190.703 37.9697 194.007C37.9697 197.312 35.2939 199.989 31.9914 199.989Z" fill="#00413D"/>
<path d="M31.9914 223.495C28.689 223.495 26.0131 220.817 26.0131 217.513C26.0131 214.208 28.689 211.53 31.9914 211.53C35.2939 211.53 37.9697 214.208 37.9697 217.513C37.9697 220.817 35.2939 223.495 31.9914 223.495Z" fill="#00413D"/>
<path d="M31.9914 247C28.689 247 26.0131 244.322 26.0131 241.018C26.0131 237.713 28.689 235.035 31.9914 235.035C35.2939 235.035 37.9697 237.713 37.9697 241.018C37.9697 244.305 35.2939 247 31.9914 247Z" fill="#00413D"/>
<path d="M5.97873 11.9645C2.67627 11.9645 0.000428748 9.28686 0.000428892 5.98223C0.000429036 2.6776 2.67627 -4.05675e-07 5.97873 -2.6132e-07C9.28119 -1.16965e-07 11.957 2.6776 11.957 5.98223C11.957 9.28686 9.28119 11.9645 5.97873 11.9645Z" fill="#00413D"/>
<path d="M5.97873 35.4696C2.67627 35.4696 0.000428748 32.792 0.000428892 29.4874C0.000429036 26.1827 2.67627 23.5051 5.97873 23.5051C9.28119 23.5051 11.957 26.1827 11.957 29.4874C11.957 32.792 9.28119 35.4696 5.97873 35.4696Z" fill="#00413D"/>
<path d="M5.97873 58.975C2.67627 58.975 0.000428748 56.2974 0.000428892 52.9927C0.000429036 49.6881 2.67627 47.0105 5.97873 47.0105C9.28119 47.0105 11.957 49.6881 11.957 52.9927C11.957 56.2974 9.28119 58.975 5.97873 58.975Z" fill="#00413D"/>
<path d="M5.97873 82.4801C2.67627 82.4801 0.000428748 79.8025 0.000428892 76.4979C0.000429036 73.1932 2.67627 70.5156 5.97873 70.5156C9.28119 70.5156 11.957 73.1932 11.957 76.4979C11.957 79.8025 9.28119 82.4801 5.97873 82.4801Z" fill="#00413D"/>
<path d="M5.97873 105.968C2.67627 105.968 0.000428748 103.291 0.000428892 99.9861C0.000429036 96.6815 2.67627 94.0039 5.97873 94.0039C9.28119 94.0039 11.957 96.6815 11.957 99.9861C11.957 103.291 9.28119 105.968 5.97873 105.968Z" fill="#00413D"/>
<path d="M5.97873 129.474C2.67627 129.474 0.000428748 126.796 0.000428892 123.492C0.000429036 120.187 2.67627 117.509 5.97873 117.509C9.28119 117.509 11.957 120.187 11.957 123.492C11.957 126.796 9.28119 129.474 5.97873 129.474Z" fill="#00413D"/>
<path d="M5.97873 152.979C2.67627 152.979 0.000428748 150.301 0.000428892 146.997C0.000429036 143.692 2.67627 141.014 5.97873 141.014C9.28119 141.014 11.957 143.692 11.957 146.997C11.957 150.301 9.28119 152.979 5.97873 152.979Z" fill="#00413D"/>
<path d="M5.97873 176.484C2.67627 176.484 0.000428748 173.806 0.000428892 170.502C0.000429036 167.197 2.67627 164.52 5.97873 164.52C9.28119 164.52 11.957 167.197 11.957 170.502C11.957 173.806 9.28119 176.484 5.97873 176.484Z" fill="#00413D"/>
<path d="M5.97873 199.989C2.67627 199.989 0.000428748 197.312 0.000428892 194.007C0.000429036 190.703 2.67627 188.025 5.97873 188.025C9.28119 188.025 11.957 190.703 11.957 194.007C11.957 197.312 9.28119 199.989 5.97873 199.989Z" fill="#00413D"/>
<path d="M5.97873 223.495C2.67627 223.495 0.000428748 220.817 0.000428892 217.513C0.000429036 214.208 2.67627 211.53 5.97873 211.53C9.28119 211.53 11.957 214.208 11.957 217.513C11.957 220.817 9.28119 223.495 5.97873 223.495Z" fill="#00413D"/>
<path d="M5.97873 247C2.67627 247 0.000428748 244.322 0.000428892 241.018C0.000429036 237.713 2.67627 235.035 5.97873 235.035C9.28119 235.035 11.957 237.713 11.957 241.018C11.957 244.305 9.28119 247 5.97873 247Z" fill="#00413D"/>
</g>
</svg>
