<svg width="167" height="167" viewBox="0 0 167 167" fill="none" xmlns="http://www.w3.org/2000/svg">
<g clip-path="url(#clip0_403_487)">
<g opacity="0.3">
<path d="M83.5 167C37.4561 167 0 129.544 0 83.5C0 37.4561 37.4561 0 83.5 0C129.544 0 167 37.4561 167 83.5C167 129.544 129.544 167 83.5 167ZM83.5 9.8007C42.8902 9.8007 9.8007 42.8417 9.8007 83.5C9.8007 124.11 42.8417 157.199 83.5 157.199C124.11 157.199 157.199 124.158 157.199 83.5C157.199 42.8902 124.11 9.8007 83.5 9.8007Z" fill="#C4C4C4"/>
</g>
<path d="M83.5 167C37.4561 167 0 129.544 0 83.5C0 37.4561 37.4561 0 83.5 0C86.217 0 88.4003 2.18332 88.4003 4.90035C88.4003 7.61737 86.217 9.8007 83.5 9.8007C42.8902 9.8007 9.8007 42.8417 9.8007 83.5C9.8007 124.11 42.8417 157.199 83.5 157.199C124.11 157.199 157.199 124.158 157.199 83.5C157.199 80.783 159.383 78.5997 162.1 78.5997C164.817 78.5997 167 80.783 167 83.5C167 129.544 129.544 167 83.5 167Z" fill="#E5745D"/>
</g>
<path d="M55.964 97.984C55.6693 97.8933 55.42 97.7007 55.216 97.406C55.0347 97.134 54.944 96.7033 54.944 96.114C54.944 94.5727 55.2613 92.9293 55.896 91.184C56.5307 89.416 57.4147 87.512 58.548 85.472C59.6813 83.4093 60.962 81.1993 62.39 78.842H57.97C57.2673 78.842 56.7007 78.91 56.27 79.046C55.862 79.1593 55.522 79.386 55.25 79.726C55.0007 80.066 54.7853 80.5873 54.604 81.29C54.128 81.3127 53.6973 81.29 53.312 81.222C52.9493 81.1313 52.6207 81.0067 52.326 80.848C52.462 80.2587 52.5753 79.6467 52.666 79.012C52.7567 78.3773 52.8247 77.72 52.87 77.04C52.9153 76.3373 52.938 75.6233 52.938 74.898C53.7993 74.9433 54.6947 74.9773 55.624 75C56.5533 75 57.7207 75 59.126 75C59.9193 75 60.656 75 61.336 75C62.016 75 62.696 74.9887 63.376 74.966C64.056 74.9433 64.7813 74.9207 65.552 74.898C65.7333 75.1247 65.8693 75.3967 65.96 75.714C66.0733 76.0313 66.13 76.3487 66.13 76.666C65.5633 77.5047 64.9967 78.3773 64.43 79.284C63.886 80.1907 63.3647 81.086 62.866 81.97C62.39 82.854 61.982 83.6473 61.642 84.35C61.2113 85.2567 60.8487 86.118 60.554 86.934C60.282 87.75 60.0667 88.5887 59.908 89.45C59.7493 90.2887 59.636 91.2293 59.568 92.272C59.5 93.3373 59.466 94.5613 59.466 95.944C58.7633 96.1933 58.106 96.4993 57.494 96.862C56.882 97.2247 56.372 97.5987 55.964 97.984ZM75.7294 76.802C74.8228 76.802 74.0521 77.074 73.4174 77.618C72.8054 78.1393 72.3294 78.842 71.9894 79.726C71.6721 80.61 71.5134 81.596 71.5134 82.684C71.5134 83.5 71.6381 84.35 71.8874 85.234C72.1594 86.0953 72.5448 86.9 73.0434 87.648C73.5648 88.3733 74.1768 88.9627 74.8794 89.416C75.6048 89.8693 76.4208 90.096 77.3274 90.096C78.2794 90.096 79.0501 89.824 79.6394 89.28C80.2288 88.736 80.6594 88.0107 80.9314 87.104C81.2034 86.1973 81.3394 85.2227 81.3394 84.18C81.3394 83.4093 81.2148 82.6047 80.9654 81.766C80.7388 80.9047 80.3761 80.1 79.8774 79.352C79.4014 78.5813 78.8121 77.9693 78.1094 77.516C77.4294 77.04 76.6361 76.802 75.7294 76.802ZM76.6134 74.796C78.2228 74.796 79.7074 75.1247 81.0674 75.782C82.4501 76.4393 83.5494 77.4027 84.3654 78.672C85.1814 79.9413 85.5894 81.494 85.5894 83.33C85.5894 85.166 85.1814 86.764 84.3654 88.124C83.5494 89.4613 82.4614 90.4927 81.1014 91.218C79.7414 91.9433 78.2454 92.306 76.6134 92.306C74.9361 92.306 73.3948 91.9433 71.9894 91.218C70.5841 90.4927 69.4621 89.4613 68.6234 88.124C67.7848 86.764 67.3654 85.166 67.3654 83.33C67.3654 81.9473 67.6148 80.7233 68.1134 79.658C68.6348 78.5927 69.3374 77.6973 70.2214 76.972C71.1054 76.2467 72.0914 75.7027 73.1794 75.34C74.2901 74.9773 75.4348 74.796 76.6134 74.796ZM93.0814 92.238C92.6734 92.1247 92.322 91.9547 92.0274 91.728C91.7327 91.4787 91.5287 91.2293 91.4154 90.98L110.115 68.676C110.478 68.7213 110.818 68.8347 111.135 69.016C111.453 69.1747 111.725 69.39 111.951 69.662L93.0814 92.238ZM95.2234 79.794C94.022 79.794 93.0247 79.5447 92.2314 79.046C91.4607 78.5247 90.8714 77.8673 90.4634 77.074C90.0554 76.2807 89.8514 75.4533 89.8514 74.592C89.8514 73.6173 90.0667 72.7107 90.4974 71.872C90.928 71.0107 91.5627 70.3193 92.4014 69.798C93.24 69.254 94.294 68.982 95.5634 68.982C96.6967 68.982 97.6374 69.2427 98.3854 69.764C99.1334 70.2627 99.6887 70.9087 100.051 71.702C100.437 72.4953 100.629 73.3 100.629 74.116C100.629 75.136 100.414 76.0767 99.9834 76.938C99.5754 77.7993 98.9747 78.4907 98.1814 79.012C97.388 79.5333 96.402 79.794 95.2234 79.794ZM95.4614 77.992C95.96 77.992 96.436 77.7087 96.8894 77.142C97.3654 76.5527 97.6034 75.6913 97.6034 74.558C97.6034 73.4473 97.3654 72.5407 96.8894 71.838C96.436 71.1127 95.8467 70.75 95.1214 70.75C94.532 70.75 94.0107 71.0787 93.5574 71.736C93.1267 72.3707 92.9114 73.1753 92.9114 74.15C92.9114 75.2833 93.138 76.2127 93.5914 76.938C94.0674 77.6407 94.6907 77.992 95.4614 77.992ZM107.803 92.272C106.602 92.272 105.605 92.0227 104.811 91.524C104.041 91.0027 103.451 90.3453 103.043 89.552C102.635 88.7587 102.431 87.9313 102.431 87.07C102.431 86.0953 102.647 85.1887 103.077 84.35C103.508 83.4887 104.143 82.7973 104.981 82.276C105.843 81.732 106.897 81.46 108.143 81.46C109.277 81.46 110.206 81.7207 110.931 82.242C111.679 82.7407 112.246 83.3867 112.631 84.18C113.017 84.9733 113.209 85.778 113.209 86.594C113.209 87.614 112.994 88.5547 112.563 89.416C112.155 90.2773 111.555 90.9687 110.761 91.49C109.968 92.0113 108.982 92.272 107.803 92.272ZM108.041 90.47C108.54 90.47 109.016 90.1867 109.469 89.62C109.945 89.0307 110.183 88.1693 110.183 87.036C110.183 85.9253 109.945 85.0187 109.469 84.316C109.016 83.5907 108.427 83.228 107.701 83.228C107.112 83.228 106.591 83.5567 106.137 84.214C105.707 84.8487 105.491 85.6533 105.491 86.628C105.491 87.7613 105.718 88.6907 106.171 89.416C106.647 90.1187 107.271 90.47 108.041 90.47Z" fill="#E5745D"/>
<defs>
<clipPath id="clip0_403_487">
<rect width="167" height="167" fill="white"/>
</clipPath>
</defs>
</svg>
