<svg width="50" height="389" viewBox="0 0 50 389" fill="none" xmlns="http://www.w3.org/2000/svg">
<g opacity="0.1">
<path d="M0 2.84575L50 52.8179V49.9722L0 0L0 2.84575Z" fill="#00413D"/>
<path d="M0 28.7199L50 78.6921V75.8262L0 25.854L0 28.7199Z" fill="#00413D"/>
<path d="M0 54.5738L50 104.546V101.7L0 51.728L0 54.5738Z" fill="#00413D"/>
<path d="M0 80.4278L50 130.4V127.554L0 77.582L0 80.4278Z" fill="#00413D"/>
<path d="M0 106.302L50 156.274V153.408L0 103.436L0 106.302Z" fill="#00413D"/>
<path d="M0 132.156L50 182.128V179.282L0 129.31L0 132.156Z" fill="#00413D"/>
<path d="M0 158.01L50 207.982V205.136L0 155.164L0 158.01Z" fill="#00413D"/>
<path d="M0 183.884L50 233.856V230.99L0 181.018L0 183.884Z" fill="#00413D"/>
<path d="M0 209.738L50 259.71V256.844L0 206.872L0 209.738Z" fill="#00413D"/>
<path d="M0 235.592L50 285.564V282.718L0 232.746L0 235.592Z" fill="#00413D"/>
<path d="M0 261.446L50 311.418V308.572L0 258.6L0 261.446Z" fill="#00413D"/>
<path d="M0 287.32L50 337.292V334.426L0 284.454L0 287.32Z" fill="#00413D"/>
<path d="M0 313.174L50 363.146V360.3L0 310.328L0 313.174Z" fill="#00413D"/>
<path d="M0 339.028L50 389V386.154L0 336.182L0 339.028Z" fill="#00413D"/>
</g>
</svg>
