<svg width="167" height="167" viewBox="0 0 167 167" fill="none" xmlns="http://www.w3.org/2000/svg">
<g clip-path="url(#clip0_403_520)">
<g opacity="0.3">
<path d="M83.5 167C37.4561 167 0 129.544 0 83.5C0 37.4561 37.4561 0 83.5 0C129.544 0 167 37.4561 167 83.5C167 129.544 129.544 167 83.5 167ZM83.5 9.8007C42.8902 9.8007 9.8007 42.8417 9.8007 83.5C9.8007 124.11 42.8417 157.199 83.5 157.199C124.11 157.199 157.199 124.158 157.199 83.5C157.199 42.8902 124.11 9.8007 83.5 9.8007Z" fill="#C4C4C4"/>
</g>
<path d="M28.3832 144.439C27.1217 144.439 25.9088 143.954 24.9384 143.032C8.87885 127.215 0 106.061 0 83.5C0 37.4561 37.4561 0 83.5 0C86.217 0 88.4004 2.18332 88.4004 4.90035C88.4004 7.61737 86.217 9.8007 83.5 9.8007C42.8902 9.8007 9.8007 42.8417 9.8007 83.5C9.8007 103.393 17.6121 122.072 31.828 136.045C33.7687 137.938 33.7687 141.043 31.8765 142.983C30.9062 143.954 29.6447 144.439 28.3832 144.439Z" fill="#E5745D"/>
</g>
<path d="M59.574 92C58.01 92 56.548 92.0113 55.188 92.034C53.828 92.0793 52.4227 92.1473 50.972 92.238C50.768 91.898 50.5867 91.524 50.428 91.116C50.2693 90.708 50.19 90.2887 50.19 89.858L61.716 74.796C62.1693 74.7733 62.6227 74.796 63.076 74.864C63.5293 74.9093 63.9373 74.9887 64.3 75.102V97.066C63.8693 97.066 63.4047 97.1 62.906 97.168C62.4073 97.2587 61.954 97.3607 61.546 97.474C61.138 97.5873 60.8093 97.7007 60.56 97.814C60.3787 97.6553 60.2427 97.4513 60.152 97.202C60.084 96.9753 60.05 96.692 60.05 96.352V91.32V90.708V78.842H60.832L53.658 89.246L53.488 88.43L62.94 88.396H63.654H66.85C67.1673 88.396 67.428 88.4413 67.632 88.532C67.836 88.6227 68.0173 88.77 68.176 88.974C68.0173 89.2913 67.8813 89.62 67.768 89.96C67.6773 90.3 67.6093 90.64 67.564 90.98C67.5187 91.2973 67.496 91.6373 67.496 92H59.574ZM78.4443 76.802C77.5376 76.802 76.7669 77.074 76.1323 77.618C75.5203 78.1393 75.0443 78.842 74.7043 79.726C74.3869 80.61 74.2283 81.596 74.2283 82.684C74.2283 83.5 74.3529 84.35 74.6023 85.234C74.8743 86.0953 75.2596 86.9 75.7583 87.648C76.2796 88.3733 76.8916 88.9627 77.5943 89.416C78.3196 89.8693 79.1356 90.096 80.0423 90.096C80.9943 90.096 81.7649 89.824 82.3543 89.28C82.9436 88.736 83.3743 88.0107 83.6463 87.104C83.9183 86.1973 84.0543 85.2227 84.0543 84.18C84.0543 83.4093 83.9296 82.6047 83.6803 81.766C83.4536 80.9047 83.0909 80.1 82.5923 79.352C82.1163 78.5813 81.5269 77.9693 80.8243 77.516C80.1443 77.04 79.3509 76.802 78.4443 76.802ZM79.3283 74.796C80.9376 74.796 82.4223 75.1247 83.7823 75.782C85.1649 76.4393 86.2643 77.4027 87.0803 78.672C87.8963 79.9413 88.3043 81.494 88.3043 83.33C88.3043 85.166 87.8963 86.764 87.0803 88.124C86.2643 89.4613 85.1763 90.4927 83.8163 91.218C82.4563 91.9433 80.9603 92.306 79.3283 92.306C77.6509 92.306 76.1096 91.9433 74.7043 91.218C73.2989 90.4927 72.1769 89.4613 71.3383 88.124C70.4996 86.764 70.0803 85.166 70.0803 83.33C70.0803 81.9473 70.3296 80.7233 70.8283 79.658C71.3496 78.5927 72.0523 77.6973 72.9363 76.972C73.8203 76.2467 74.8063 75.7027 75.8943 75.34C77.0049 74.9773 78.1496 74.796 79.3283 74.796ZM95.7962 92.238C95.3882 92.1247 95.0369 91.9547 94.7422 91.728C94.4476 91.4787 94.2436 91.2293 94.1302 90.98L112.83 68.676C113.193 68.7213 113.533 68.8347 113.85 69.016C114.168 69.1747 114.44 69.39 114.666 69.662L95.7962 92.238ZM97.9382 79.794C96.7369 79.794 95.7396 79.5447 94.9462 79.046C94.1756 78.5247 93.5862 77.8673 93.1782 77.074C92.7702 76.2807 92.5662 75.4533 92.5662 74.592C92.5662 73.6173 92.7816 72.7107 93.2122 71.872C93.6429 71.0107 94.2776 70.3193 95.1162 69.798C95.9549 69.254 97.0089 68.982 98.2782 68.982C99.4116 68.982 100.352 69.2427 101.1 69.764C101.848 70.2627 102.404 70.9087 102.766 71.702C103.152 72.4953 103.344 73.3 103.344 74.116C103.344 75.136 103.129 76.0767 102.698 76.938C102.29 77.7993 101.69 78.4907 100.896 79.012C100.103 79.5333 99.1169 79.794 97.9382 79.794ZM98.1762 77.992C98.6749 77.992 99.1509 77.7087 99.6042 77.142C100.08 76.5527 100.318 75.6913 100.318 74.558C100.318 73.4473 100.08 72.5407 99.6042 71.838C99.1509 71.1127 98.5616 70.75 97.8362 70.75C97.2469 70.75 96.7256 71.0787 96.2722 71.736C95.8416 72.3707 95.6262 73.1753 95.6262 74.15C95.6262 75.2833 95.8529 76.2127 96.3062 76.938C96.7822 77.6407 97.4056 77.992 98.1762 77.992ZM110.518 92.272C109.317 92.272 108.32 92.0227 107.526 91.524C106.756 91.0027 106.166 90.3453 105.758 89.552C105.35 88.7587 105.146 87.9313 105.146 87.07C105.146 86.0953 105.362 85.1887 105.792 84.35C106.223 83.4887 106.858 82.7973 107.696 82.276C108.558 81.732 109.612 81.46 110.858 81.46C111.992 81.46 112.921 81.7207 113.646 82.242C114.394 82.7407 114.961 83.3867 115.346 84.18C115.732 84.9733 115.924 85.778 115.924 86.594C115.924 87.614 115.709 88.5547 115.278 89.416C114.87 90.2773 114.27 90.9687 113.476 91.49C112.683 92.0113 111.697 92.272 110.518 92.272ZM110.756 90.47C111.255 90.47 111.731 90.1867 112.184 89.62C112.66 89.0307 112.898 88.1693 112.898 87.036C112.898 85.9253 112.66 85.0187 112.184 84.316C111.731 83.5907 111.142 83.228 110.416 83.228C109.827 83.228 109.306 83.5567 108.852 84.214C108.422 84.8487 108.206 85.6533 108.206 86.628C108.206 87.7613 108.433 88.6907 108.886 89.416C109.362 90.1187 109.986 90.47 110.756 90.47Z" fill="#E5745D"/>
<defs>
<clipPath id="clip0_403_520">
<rect width="167" height="167" fill="white"/>
</clipPath>
</defs>
</svg>
