<svg width="167" height="167" viewBox="0 0 167 167" fill="none" xmlns="http://www.w3.org/2000/svg">
<g clip-path="url(#clip0_403_498)">
<g opacity="0.3">
<path d="M83.5 167C37.4561 167 0 129.544 0 83.5C0 37.4561 37.4561 0 83.5 0C129.544 0 167 37.4561 167 83.5C167 129.544 129.544 167 83.5 167ZM83.5 9.8007C42.8902 9.8007 9.8007 42.8417 9.8007 83.5C9.8007 124.158 42.8902 157.199 83.5 157.199C124.11 157.199 157.199 124.158 157.199 83.5C157.199 42.8417 124.11 9.8007 83.5 9.8007Z" fill="#C4C4C4"/>
</g>
<path d="M83.5 167C37.4561 167 0 129.544 0 83.5C0 37.4561 37.4561 0 83.5 0C86.217 0 88.4004 2.18332 88.4004 4.90035C88.4004 7.61737 86.217 9.8007 83.5 9.8007C42.8902 9.8007 9.8007 42.8417 9.8007 83.5C9.8007 124.158 42.8902 157.199 83.5 157.199C124.11 157.199 157.199 124.158 157.199 83.5C157.199 63.0253 149 44.0061 134.153 29.9358C132.164 28.0921 132.115 24.9869 133.959 22.9977C135.803 21.0084 138.908 20.9599 140.897 22.8036C157.733 38.7661 167.049 60.3083 167.049 83.4515C167 129.544 129.544 167 83.5 167Z" fill="#E5745D"/>
<path d="M55.126 84.596C54.514 85.0493 54.0267 85.5027 53.664 85.956C53.324 86.4093 53.0747 86.9193 52.916 87.486C52.7573 88.03 52.678 88.6873 52.678 89.458C52.678 90.7047 53.0067 91.6907 53.664 92.416C54.344 93.1187 55.228 93.47 56.316 93.47C57.2227 93.47 57.9367 93.198 58.458 92.654C58.9793 92.0873 59.24 91.3507 59.24 90.444C59.24 89.5827 59.0247 88.8233 58.594 88.166C58.186 87.486 57.5967 86.8513 56.826 86.262C56.0553 85.65 55.16 85.038 54.14 84.426C53.2333 83.8593 52.4173 83.2927 51.692 82.726C50.9893 82.1593 50.434 81.5473 50.026 80.89C49.6407 80.21 49.448 79.428 49.448 78.544C49.448 76.9573 50.026 75.6993 51.182 74.77C52.338 73.818 53.9473 73.342 56.01 73.342C58.0047 73.342 59.6027 73.75 60.804 74.566C62.0053 75.3593 62.606 76.4813 62.606 77.932C62.606 78.7933 62.4133 79.5413 62.028 80.176C61.6427 80.8107 61.1213 81.366 60.464 81.842C59.8293 82.2953 59.1493 82.692 58.424 83.032L56.656 82.08C57.3813 81.604 57.9027 81.0713 58.22 80.482C58.5373 79.8927 58.696 79.1787 58.696 78.34C58.696 77.3427 58.4467 76.5493 57.948 75.96C57.472 75.3707 56.826 75.076 56.01 75.076C55.262 75.076 54.6613 75.3027 54.208 75.756C53.7773 76.2093 53.562 76.81 53.562 77.558C53.5393 78.442 53.7773 79.1787 54.276 79.768C54.7973 80.3347 55.636 80.9467 56.792 81.604C58.152 82.3973 59.3307 83.168 60.328 83.916C61.3253 84.664 62.0847 85.48 62.606 86.364C63.1273 87.248 63.388 88.2907 63.388 89.492C63.388 91.328 62.7307 92.756 61.416 93.776C60.124 94.796 58.288 95.306 55.908 95.306C53.6413 95.306 51.862 94.8413 50.57 93.912C49.278 92.96 48.632 91.6567 48.632 90.002C48.632 88.506 49.0627 87.248 49.924 86.228C50.7853 85.1853 52.0547 84.2447 53.732 83.406L55.126 84.596ZM68.68 77.898C69.4734 77.9207 70.1874 77.9433 70.822 77.966C71.4567 77.9887 72.0914 78 72.726 78C73.3834 78 74.12 78 74.936 78C75.548 78 75.99 77.8413 76.262 77.524C76.534 77.184 76.67 76.776 76.67 76.3C76.942 76.2093 77.2594 76.1527 77.622 76.13C77.9847 76.1073 78.3247 76.096 78.642 76.096C78.5514 76.8213 78.4947 77.6147 78.472 78.476C78.4494 79.3147 78.438 80.176 78.438 81.06C78.3247 81.2867 78.1434 81.468 77.894 81.604C77.6447 81.74 77.2934 81.808 76.84 81.808C76.296 81.808 75.684 81.808 75.004 81.808C74.324 81.808 73.6327 81.8193 72.93 81.842C72.25 81.842 71.6267 81.8533 71.06 81.876C70.4934 81.876 70.0627 81.8873 69.768 81.91L69.088 84.8C71.332 85.208 73.202 85.752 74.698 86.432C76.194 87.112 77.316 87.9847 78.064 89.05C78.812 90.0927 79.186 91.396 79.186 92.96C79.186 94.2747 78.914 95.4193 78.37 96.394C77.8487 97.3687 77.146 98.1847 76.262 98.842C75.4007 99.4993 74.4487 99.9867 73.406 100.304C72.386 100.644 71.366 100.814 70.346 100.814C69.394 100.814 68.5667 100.712 67.864 100.508C67.1614 100.327 66.606 100.1 66.198 99.828C66.198 99.556 66.232 99.284 66.3 99.012C66.3907 98.7627 66.538 98.5247 66.742 98.298C66.9914 98.4113 67.3994 98.5133 67.966 98.604C68.5327 98.7173 69.1787 98.774 69.904 98.774C70.788 98.774 71.604 98.5813 72.352 98.196C73.1 97.8107 73.6894 97.244 74.12 96.496C74.5734 95.7707 74.8 94.9207 74.8 93.946C74.8 93.13 74.6074 92.4047 74.222 91.77C73.8367 91.1353 73.304 90.6027 72.624 90.172C71.944 89.7187 71.1507 89.3447 70.244 89.05C69.3374 88.7327 68.374 88.506 67.354 88.37C67.1274 88.1887 66.946 87.9733 66.81 87.724C66.6967 87.452 66.6287 87.18 66.606 86.908L68.68 77.898ZM87.0892 95.238C86.6812 95.1247 86.3299 94.9547 86.0352 94.728C85.7405 94.4787 85.5365 94.2293 85.4232 93.98L104.123 71.676C104.486 71.7213 104.826 71.8347 105.143 72.016C105.461 72.1747 105.733 72.39 105.959 72.662L87.0892 95.238ZM89.2312 82.794C88.0299 82.794 87.0325 82.5447 86.2392 82.046C85.4685 81.5247 84.8792 80.8673 84.4712 80.074C84.0632 79.2807 83.8592 78.4533 83.8592 77.592C83.8592 76.6173 84.0745 75.7107 84.5052 74.872C84.9359 74.0107 85.5705 73.3193 86.4092 72.798C87.2479 72.254 88.3019 71.982 89.5712 71.982C90.7045 71.982 91.6452 72.2427 92.3932 72.764C93.1412 73.2627 93.6965 73.9087 94.0592 74.702C94.4445 75.4953 94.6372 76.3 94.6372 77.116C94.6372 78.136 94.4219 79.0767 93.9912 79.938C93.5832 80.7993 92.9825 81.4907 92.1892 82.012C91.3959 82.5333 90.4099 82.794 89.2312 82.794ZM89.4692 80.992C89.9679 80.992 90.4439 80.7087 90.8972 80.142C91.3732 79.5527 91.6112 78.6913 91.6112 77.558C91.6112 76.4473 91.3732 75.5407 90.8972 74.838C90.4439 74.1127 89.8545 73.75 89.1292 73.75C88.5399 73.75 88.0185 74.0787 87.5652 74.736C87.1345 75.3707 86.9192 76.1753 86.9192 77.15C86.9192 78.2833 87.1459 79.2127 87.5992 79.938C88.0752 80.6407 88.6985 80.992 89.4692 80.992ZM101.811 95.272C100.61 95.272 99.6125 95.0227 98.8192 94.524C98.0485 94.0027 97.4592 93.3453 97.0512 92.552C96.6432 91.7587 96.4392 90.9313 96.4392 90.07C96.4392 89.0953 96.6545 88.1887 97.0852 87.35C97.5159 86.4887 98.1505 85.7973 98.9892 85.276C99.8505 84.732 100.905 84.46 102.151 84.46C103.285 84.46 104.214 84.7207 104.939 85.242C105.687 85.7407 106.254 86.3867 106.639 87.18C107.025 87.9733 107.217 88.778 107.217 89.594C107.217 90.614 107.002 91.5547 106.571 92.416C106.163 93.2773 105.563 93.9687 104.769 94.49C103.976 95.0113 102.99 95.272 101.811 95.272ZM102.049 93.47C102.548 93.47 103.024 93.1867 103.477 92.62C103.953 92.0307 104.191 91.1693 104.191 90.036C104.191 88.9253 103.953 88.0187 103.477 87.316C103.024 86.5907 102.435 86.228 101.709 86.228C101.12 86.228 100.599 86.5567 100.145 87.214C99.7145 87.8487 99.4992 88.6533 99.4992 89.628C99.4992 90.7613 99.7259 91.6907 100.179 92.416C100.655 93.1187 101.279 93.47 102.049 93.47Z" fill="#E5745D"/>
</g>
<defs>
<clipPath id="clip0_403_498">
<rect width="167" height="167" fill="white"/>
</clipPath>
</defs>
</svg>
